<?xml version="1.0" encoding="UTF-8" standalone="no"?>
<!-- Created with Inkscape (http://www.inkscape.org/) -->

<svg
   xmlns:dc="http://purl.org/dc/elements/1.1/"
   xmlns:cc="http://creativecommons.org/ns#"
   xmlns:rdf="http://www.w3.org/1999/02/22-rdf-syntax-ns#"
   xmlns:svg="http://www.w3.org/2000/svg"
   xmlns="http://www.w3.org/2000/svg"
   xmlns:sodipodi="http://sodipodi.sourceforge.net/DTD/sodipodi-0.dtd"
   xmlns:inkscape="http://www.inkscape.org/namespaces/inkscape"
   width="210mm"
   height="297mm"
   id="svg4766"
   version="1.1"
   inkscape:version="0.48.2 r9819"
   sodipodi:docname="logo.svg">
  <defs
     id="defs4768" />
  <sodipodi:namedview
     id="base"
     pagecolor="#ffffff"
     bordercolor="#666666"
     borderopacity="1.0"
     inkscape:pageopacity="0.0"
     inkscape:pageshadow="2"
     inkscape:zoom="0.24748737"
     inkscape:cx="197.47989"
     inkscape:cy="789.74741"
     inkscape:document-units="px"
     inkscape:current-layer="layer1"
     showgrid="false"
     inkscape:window-width="1366"
     inkscape:window-height="724"
     inkscape:window-x="0"
     inkscape:window-y="22"
     inkscape:window-maximized="0" />
  <metadata
     id="metadata4771">
    <rdf:RDF>
      <cc:Work
         rdf:about="">
        <dc:format>image/svg+xml</dc:format>
        <dc:type
           rdf:resource="http://purl.org/dc/dcmitype/StillImage" />
        <dc:title />
      </cc:Work>
    </rdf:RDF>
  </metadata>
  <g
     inkscape:label="Calque 1"
     inkscape:groupmode="layer"
     id="layer1">
    <path
       style="fill:#ff0000;fill-opacity:1;fill-rule:nonzero;stroke:none"
       d="m 1310.7592,593.40819 c -42.9006,1.34894 -81.1596,20.08587 -108.2247,49.23802 0.2071,-0.009 0.4179,-0.0131 0.6246,-0.0196 2.6468,-0.0832 5.2703,0.009 7.8869,0.25227 5.3905,0.31983 10.0622,0.98114 14.0072,1.99833 1.7968,0.10662 3.2477,0.3781 4.4032,0.83072 1.1556,0.45293 1.6744,1.33198 1.5526,2.64004 -0.5492,3.27825 -2.0099,5.46323 -4.4224,6.51721 -2.2497,1.04909 -4.7758,1.58847 -7.5449,1.67541 -2.7791,-0.23853 -6.0449,-0.27879 -9.7911,-0.16106 -3.7464,0.11789 -7.4111,0.2331 -10.9945,0.34568 -1.466,0.0462 -2.7698,-0.087 -3.92,-0.377 -0.741,-0.22121 -1.2911,-0.85639 -1.6861,-1.91672 -20.6098,27.16265 -32.4022,61.29604 -31.2472,98.03044 0.1356,4.31193 0.4538,8.57801 0.9337,12.78949 0.1582,-0.0919 0.2875,-0.21281 0.4596,-0.29585 1.6033,-0.8656 3.2972,-1.1801 5.0989,-0.9107 3.7771,0.85953 7.7723,1.16931 12.0022,0.87327 4.3927,-0.30117 8.415,-1.90129 12.0743,-4.7881 4.2954,-3.39595 7.51,-7.74375 9.6265,-13.02772 2.2793,-5.28908 3.72,-10.88052 4.3501,-16.77004 0.63,-5.88934 0.617,-11.83924 -0.061,-17.85064 -0.5153,-6.01635 -1.1802,-11.54166 -1.9905,-16.57058 -0.4025,-2.43293 -1.0393,-4.29071 -1.8947,-5.56825 -0.8554,-1.27732 -2.1129,-2.71147 -3.793,-4.28916 -3.6805,-2.98199 -3.9698,-6.64135 -0.8454,-10.97886 1.2467,-1.83258 2.863,-2.83449 4.8125,-3.05899 0.2641,-0.0286 0.5253,-0.0453 0.7799,-0.0558 1.7808,-0.0737 3.3211,0.29037 4.6308,1.10507 2.4944,1.55213 4.4292,3.36902 5.799,5.44543 1.3645,1.91373 2.4121,3.9885 3.1354,6.24824 3.1274,11.31488 4.777,22.44247 4.9571,33.36073 0.338,10.75035 -1.223,20.82232 -4.6774,30.22444 -1.4854,4.61196 -3.5448,8.92343 -6.1908,12.91968 -2.4833,3.99117 -5.4102,7.40335 -8.7437,10.27988 -3.3387,2.71367 -7.1714,4.799 -11.5284,6.24036 -4.1939,1.43626 -8.7407,1.98336 -13.6423,1.64834 -2.1228,-0.0963 -4.2411,-0.43383 -6.379,-1.01876 -1.9751,-0.59007 -3.8764,-1.33855 -5.6988,-2.25953 -0.2691,-0.176 -0.5185,-0.35679 -0.7673,-0.53865 8.4461,46.0953 37.2933,84.77321 76.5799,106.73974 l -2.1243,-67.56034 -14.3054,0.44982 c -6.4075,0.20155 -11.4721,-1.63271 -15.2104,-5.46221 -3.7436,-3.99359 -5.6847,-8.76805 -5.8604,-14.35417 -0.1756,-5.58585 1.4632,-10.41849 4.9539,-14.47532 3.4851,-4.22088 8.4229,-6.42395 14.8303,-6.62559 l 68.7785,-2.16262 c 6.4073,-0.20129 11.4734,1.68728 15.2173,5.68078 3.7381,3.82961 5.7088,8.5487 5.8845,14.13457 0.1757,5.58612 -1.493,10.47408 -4.978,14.69493 -3.4908,4.05686 -8.4299,6.20564 -14.8372,6.40702 l -13.8057,0.43408 2.6615,84.64567 c 12.456,2.80152 25.4693,4.07657 38.8216,3.65671 2.841,-0.0893 5.6593,-0.24496 8.4576,-0.48481 -0.1537,-1.05343 -0.2552,-2.1529 -0.2914,-3.30493 l -3.3471,-106.44743 c -0.2065,-6.57161 1.5963,-11.63512 5.431,-15.2094 3.9988,-3.57919 8.8062,-5.46684 14.3923,-5.6426 5.4216,-0.17038 10.167,1.4169 14.2185,4.74296 4.2159,3.32117 6.4189,8.2587 6.6256,14.83038 l 1.0616,33.76454 31.535,-48.1086 c 2.2228,-2.5363 4.5507,-4.51756 6.974,-5.90957 2.4229,-1.39167 5.2728,-2.13535 8.5588,-2.23887 2.793,-0.0877 5.4556,0.39701 7.9564,1.46943 2.6647,1.06756 5.0148,2.50445 7.0432,4.24949 2.0282,1.7454 3.6303,3.91426 4.8632,6.50665 1.2275,2.42842 1.906,4.93763 1.9888,7.56624 0.1497,4.76469 -1.2816,9.02235 -4.2894,12.73487 l -34.7123,41.51768 20.3214,21.84086 c 33.492,-29.36383 54.0783,-72.93582 52.5692,-120.93059 -0.422,-13.42126 -2.5758,-26.38775 -6.1881,-38.69964 -0.012,0.67789 -0,1.36451 -0.03,2.0332 -0.014,4.72877 -0.1978,8.98128 -0.5685,12.74288 -0.3761,3.59889 -0.6452,6.11918 -0.7618,7.59022 -0.4223,2.13285 -0.917,3.7962 -1.5326,4.95683 -0.6209,0.99784 -1.6639,1.83899 -3.1092,2.53651 -1.9292,0.87589 -3.5343,1.24338 -4.8422,1.12145 -1.1506,-0.28987 -2.0945,-0.83848 -2.7714,-1.63249 -0.6773,-0.79383 -1.1648,-1.67383 -1.5213,-2.64093 -0.3616,-1.12991 -0.5665,-2.10589 -0.5921,-2.92035 0.208,-3.75656 0.3179,-7.57131 0.358,-11.48568 0.04,-3.91427 0.01,-7.6688 -0.1036,-11.25227 0.045,-3.75138 -0.1504,-7.18373 -0.5731,-10.26835 -0.2654,-3.25248 -0.671,-6.06863 -1.2364,-8.49657 -0.1834,-0.64635 -0.5266,-1.4751 -1.0458,-2.43714 -0.5247,-1.1247 -1.222,-2.14097 -2.0669,-3.09278 -0.6825,-0.95672 -1.3422,-1.77547 -2.0143,-2.40663 -0.6721,-0.63097 -1.1755,-1.01924 -1.5062,-1.17201 -1.629,0.0513 -3.6299,1.67495 -5.9757,4.84645 -2.3511,3.00884 -4.6922,6.66381 -7.0022,10.97546 -2.3102,4.31188 -4.505,8.85759 -6.6368,13.65282 -2.1371,4.63251 -3.8024,8.61454 -5.0031,11.91317 -0.8442,4.26576 -2.3035,7.48886 -4.3543,9.67289 -1.8932,2.01617 -3.7382,3.05652 -5.5299,3.11282 -1.7919,0.0563 -3.6016,-0.55208 -5.4343,-1.79889 -1.675,-1.41471 -2.7073,-2.99877 -3.0892,-4.78023 -0.5707,-2.59075 -1.1541,-5.51966 -1.7449,-8.76201 -0.5914,-3.24224 -1.1872,-6.57487 -1.7834,-9.98017 -0.5962,-3.4051 -1.2782,-6.70378 -2.0322,-9.94104 -0.5912,-3.24219 -1.2302,-6.16938 -1.9635,-8.75509 -2.8351,3.18676 -5.671,6.71469 -8.4852,10.55311 -2.814,3.83859 -5.6387,7.73873 -8.4476,11.74003 -2.6464,3.99637 -5.2059,8.00647 -7.6893,11.99759 -2.4882,3.8283 -4.8057,7.25256 -6.9935,10.25613 -1.4099,1.83783 -2.9181,3.50182 -4.5009,5.01889 -1.4249,1.34924 -3.019,2.06471 -4.8106,2.12104 -1.3032,0.041 -2.6507,-0.49493 -3.9896,-1.59419 -1.1811,-1.26718 -2.2674,-2.79371 -3.301,-4.55475 -1.0338,-1.76097 -1.9045,-3.75422 -2.6279,-6.01412 -0.5602,-2.26496 -0.98,-4.53366 -1.2146,-6.80897 -0.057,-7.00903 0.192,-14.70202 0.7452,-23.03481 0.5481,-8.49543 1.0412,-16.74311 1.4419,-24.74499 0.4014,-2.78428 1.2171,-5.32176 2.4484,-7.64328 1.3892,-2.48917 3.443,-4.20158 6.1865,-5.10316 0.6883,-0.14393 1.3406,-0.21954 1.9306,-0.24828 1.7704,-0.0862 3.0938,0.33143 3.9798,1.2818 1.344,1.26222 1.9549,3.29492 1.8792,6.06896 -0.4068,2.62158 -0.7081,5.89537 -0.9107,9.81473 -0.2082,3.75661 -0.3997,7.74814 -0.5923,11.99322 -0.1977,4.08245 -0.3864,8.16094 -0.5843,12.24318 -0.035,4.07731 -0.091,7.83458 -0.1462,11.26014 2.3308,-3.66015 5.2241,-8.14073 8.6437,-13.46576 3.5823,-5.32998 7.1469,-10.40998 10.7447,-15.25147 3.7555,-5.00934 7.3784,-9.22709 10.8594,-12.59753 3.6388,-3.53822 6.6722,-5.33721 9.1157,-5.41417 2.6058,-0.0818 4.7836,1.14922 6.4946,3.704 1.8685,2.38705 3.2619,5.37752 4.1891,8.93525 1.0899,3.55281 1.8743,7.33948 2.3282,11.40119 0.6165,4.05681 1.0468,7.65595 1.3071,10.74551 1.0735,-2.15325 2.2972,-4.5607 3.6815,-7.21299 1.5414,-2.8202 3.1562,-5.64405 4.8612,-8.46945 1.6994,-2.98817 3.5724,-5.90723 5.603,-8.74295 2.0302,-2.83551 4.1457,-5.35804 6.3597,-7.54732 2.3714,-2.3571 4.8612,-4.05192 7.4367,-5.11128 2.7331,-1.2271 4.6465,-1.86559 5.7869,-1.90153 0.8423,-0.0264 1.7681,0.12105 2.7331,0.4143 -28.6561,-42.50668 -77.8388,-69.80697 -132.8614,-68.07686 z m -10.8914,49.36665 c 5.6958,-0.34196 9.805,0.82831 12.3356,3.52035 2.6877,2.52431 4.0062,5.89007 3.9765,10.13001 -0.1825,4.57109 -0.5189,9.49373 -1.0065,14.72643 -0.33,5.06482 -0.8341,10.19145 -1.4845,15.42924 -0.6506,5.23802 -1.3863,10.31608 -2.2099,15.23327 -0.8237,4.91725 -1.6352,9.36366 -2.4893,13.30353 4.6732,3.44012 7.2825,6.53527 7.8582,9.28886 0.5757,2.7537 0.2487,5.22006 -0.9873,7.37845 -1.3739,2.97806 -3.3756,4.57043 -5.9766,4.81521 -2.4434,0.0768 -5.1548,-0.73325 -8.1431,-2.43284 -2.5549,1.71084 -5.4988,3.59411 -8.8577,5.65619 -3.2015,1.89424 -6.5803,3.79114 -10.1074,5.69545 -3.5322,1.7416 -7.0637,3.32623 -10.6062,4.74192 -3.3795,1.41064 -6.5254,2.4049 -9.4421,2.98577 -5.3494,0.98343 -9.8526,0.14261 -13.523,-2.51377 -3.6705,-2.65629 -5.7643,-6.75011 -6.264,-12.27793 -0.4437,-3.73604 -0.073,-7.55906 1.1075,-11.50929 1.1751,-4.11296 3.0172,-8.01346 5.5107,-11.67896 2.6512,-3.83329 5.8627,-7.28566 9.6798,-10.34055 3.817,-3.05476 8.1618,-5.47324 12.9971,-7.25578 1.2877,-0.52955 2.9771,-0.98683 5.0842,-1.37921 2.1074,-0.39229 4.2101,-0.54547 6.3328,-0.44926 2.2803,-0.0716 4.5178,0.29343 6.661,1.04117 2.143,0.74794 3.9754,2.07685 5.503,3.98529 0.5644,-2.78941 1.0467,-5.83894 1.4331,-9.11206 0.5439,-3.44093 0.9834,-6.86198 1.3644,-10.29795 0.3814,-3.43581 0.6841,-6.65382 0.9177,-9.59607 0.3912,-3.1101 0.5706,-5.71463 0.5041,-7.83224 0.086,-2.44828 -0.625,-3.89955 -2.1063,-4.34219 -1.3235,-0.61047 -3.1966,-0.46448 -5.6144,0.42662 -4.1941,1.43636 -9.2198,4.13752 -15.1287,8.07322 -5.7462,3.9308 -11.3355,8.09204 -16.7404,12.50108 -1.7457,1.52234 -3.6005,2.24603 -5.5604,2.1445 -1.7967,-0.10645 -3.2056,-0.81459 -4.2238,-2.08701 -1.1812,-1.26711 -1.7183,-2.72386 -1.6066,-4.35793 0.2696,-1.80186 1.2788,-3.71133 3.0092,-5.72239 3.3283,-3.03934 6.8986,-6.15465 10.7108,-9.37251 3.9747,-3.22266 8.043,-6.12369 12.2013,-8.70026 4.153,-2.73911 8.3294,-4.97819 12.513,-6.74029 4.1838,-1.76187 8.3112,-2.78698 12.3782,-3.07807 z m -20.3931,67.36168 c -0.1629,0.005 -0.3364,0.0215 -0.4987,0.047 -2.2651,0.56044 -4.6538,1.705 -7.2087,3.41574 -2.5602,1.54794 -5.0419,3.50375 -7.4132,5.86085 -2.2141,2.18927 -4.0137,4.6706 -5.3924,7.48568 -1.2211,2.64717 -1.7163,5.2929 -1.4715,7.89385 0.1936,0.97224 0.7939,1.67456 1.7867,2.13242 0.9925,0.45803 2.151,0.50861 3.4436,0.14189 4.0467,-0.94245 8.6995,-2.64947 14.003,-5.09887 5.4611,-2.61735 9.9387,-5.35707 13.4352,-8.23882 0.1321,-0.98234 -0.1363,-2.18634 -0.8333,-3.63183 -0.7029,-1.60831 -1.6463,-3.13932 -2.8325,-4.56953 -1.0286,-1.59804 -2.2275,-2.94684 -3.5665,-4.04612 -1.1715,-0.96181 -2.3115,-1.42807 -3.4517,-1.39224 z m 88.7538,152.84872 0.9232,29.3605 c 5.5453,-2.05131 10.9419,-4.42693 16.1606,-7.07393 l -17.0838,-22.28657 z"
       id="path3839"
       inkscape:connector-curvature="0" />
    <path
       sodipodi:type="arc"
       style="fill:#000000;fill-opacity:1;fill-rule:nonzero;stroke:none"
       id="path3759"
       sodipodi:cx="-330"
       sodipodi:cy="56.647896"
       sodipodi:rx="135.71428"
       sodipodi:ry="135.71428"
       d="m -194.28572,56.647896 a 135.71428,135.71428 0 1 1 -271.42856,0 135.71428,135.71428 0 1 1 271.42856,0 z"
       transform="matrix(1.1368421,0,0,1.1368421,582.30075,199.39104)" />
    <text
       xml:space="preserve"
       style="font-size:254.36779785px;font-style:normal;font-variant:normal;font-weight:bold;font-stretch:normal;line-height:125%;letter-spacing:0px;word-spacing:0px;fill:#ffffff;fill-opacity:1;stroke:none;font-family:Century Gothic;-inkscape-font-specification:Century Gothic Bold"
       x="76.679276"
       y="343.07822"
       id="text2987"
       sodipodi:linespacing="125%"><tspan
         sodipodi:role="line"
         id="tspan2989"
         x="76.679276"
         y="343.07822"
         style="font-style:normal;font-variant:normal;font-weight:normal;font-stretch:normal;fill:#ffffff;font-family:Junegull;-inkscape-font-specification:Junegull">tk</tspan></text>
    <text
       xml:space="preserve"
       style="font-size:69.63056946px;font-style:normal;font-variant:normal;font-weight:normal;font-stretch:normal;line-height:125%;letter-spacing:0px;word-spacing:0px;fill:#000000;fill-opacity:1;stroke:none;font-family:Century Gothic;-inkscape-font-specification:Century Gothic"
       x="462.12427"
       y="252.6283"
       id="text4796"
       sodipodi:linespacing="125%"><tspan
         sodipodi:role="line"
         id="tspan4798"
         x="462.12427"
         y="252.6283">a game jam</tspan><tspan
         sodipodi:role="line"
         x="462.12427"
         y="339.6665"
         id="tspan4835">toolkit for javascript</tspan></text>
    <text
       sodipodi:linespacing="125%"
       id="text4831"
       y="343.65564"
       x="-269.16782"
       style="font-size:234.18930054px;font-style:normal;font-variant:normal;font-weight:bold;font-stretch:normal;line-height:125%;letter-spacing:0px;word-spacing:0px;fill:#000000;fill-opacity:1;stroke:none;font-family:Century Gothic;-inkscape-font-specification:Century Gothic Bold"
       xml:space="preserve"><tspan
         y="343.65564"
         x="-269.16782"
         id="tspan4833"
         sodipodi:role="line"
         style="font-style:italic;font-variant:normal;font-weight:bold;font-stretch:normal;fill:#000000;font-family:Nanum Pen Script;-inkscape-font-specification:Nanum Pen Script Bold Italic">jam</tspan></text>
    <path
       transform="matrix(1.0791274,-0.35762283,0.35762283,1.0791274,460.1638,581.63997)"
       d="m -194.28572,56.647896 a 135.71428,135.71428 0 1 1 -271.42856,0 135.71428,135.71428 0 1 1 271.42856,0 z"
       sodipodi:ry="135.71428"
       sodipodi:rx="135.71428"
       sodipodi:cy="56.647896"
       sodipodi:cx="-330"
       id="path3787"
       style="fill:#000000;fill-opacity:1;fill-rule:nonzero;stroke:none"
       sodipodi:type="arc" />
    <text
       sodipodi:linespacing="125%"
       id="text3789"
       y="840.55499"
       x="-251.78885"
       style="font-size:254.36779785px;font-style:normal;font-variant:normal;font-weight:bold;font-stretch:normal;line-height:125%;letter-spacing:0px;word-spacing:0px;fill:#ffffff;fill-opacity:1;stroke:none;font-family:Century Gothic;-inkscape-font-specification:Century Gothic Bold"
       xml:space="preserve"
       transform="matrix(0.94923241,-0.31457564,0.31457564,0.94923241,0,0)"><tspan
         style="font-style:normal;font-variant:normal;font-weight:normal;font-stretch:normal;fill:#ffffff;font-family:Junegull;-inkscape-font-specification:Junegull"
         y="840.55499"
         x="-251.78885"
         id="tspan3791"
         sodipodi:role="line">tk</tspan></text>
    <text
       xml:space="preserve"
       style="font-size:234.18930054px;font-style:normal;font-variant:normal;font-weight:bold;font-stretch:normal;line-height:125%;letter-spacing:0px;word-spacing:0px;fill:#000000;fill-opacity:1;stroke:none;font-family:Century Gothic;-inkscape-font-specification:Century Gothic Bold"
       x="-28.751537"
       y="1062.8843"
       id="text3793"
       sodipodi:linespacing="125%"><tspan
         style="font-style:italic;font-variant:normal;font-weight:bold;font-stretch:normal;fill:#000000;font-family:Nanum Pen Script;-inkscape-font-specification:Nanum Pen Script Bold Italic"
         sodipodi:role="line"
         id="tspan3795"
         x="-28.751537"
         y="1062.8843">jam</tspan></text>
    <path
       style="fill:#008000;fill-opacity:1;fill-rule:nonzero;stroke:none"
       d="m 1328.0321,598.03313 c -42.9006,1.34893 -81.1597,20.08587 -108.2248,49.23802 0.2072,-0.009 0.4179,-0.0131 0.6247,-0.0196 2.6467,-0.0832 5.2703,0.009 7.8868,0.25227 5.3905,0.31983 10.0622,0.98114 14.0072,1.99833 1.7969,0.10661 3.2478,0.3781 4.4032,0.83072 1.1556,0.45293 1.6744,1.33198 1.5526,2.64004 -0.5492,3.27825 -2.0099,5.46323 -4.4224,6.51721 -2.2497,1.04909 -4.7757,1.58847 -7.5449,1.67541 -2.7791,-0.23853 -6.0448,-0.27879 -9.791,-0.16106 -3.7465,0.11789 -7.4112,0.2331 -10.9946,0.34567 -1.466,0.0462 -2.7697,-0.087 -3.92,-0.37699 -0.741,-0.22121 -1.2911,-0.8564 -1.6861,-1.91672 -20.6097,27.16265 -32.4022,61.29604 -31.2472,98.03044 0.1356,4.31193 0.4539,8.57801 0.9338,12.78949 0.1582,-0.0918 0.2875,-0.21281 0.4596,-0.29585 1.6033,-0.8656 3.2971,-1.1801 5.0989,-0.9107 3.777,0.85952 7.7723,1.16931 12.0022,0.87327 4.3926,-0.30118 8.4149,-1.90129 12.0742,-4.7881 4.2954,-3.39596 7.51,-7.74375 9.6266,-13.02772 2.2792,-5.28908 3.72,-10.88052 4.35,-16.77004 0.6301,-5.88934 0.6171,-11.83924 -0.061,-17.85064 -0.5153,-6.01635 -1.1802,-11.54166 -1.9905,-16.57059 -0.4024,-2.43292 -1.0393,-4.29071 -1.8947,-5.56824 -0.8554,-1.27733 -2.1128,-2.71147 -3.7929,-4.28916 -3.6805,-2.98199 -3.9698,-6.64135 -0.8455,-10.97886 1.2467,-1.83258 2.8631,-2.83449 4.8126,-3.05899 0.264,-0.0286 0.5253,-0.0453 0.7799,-0.0558 1.7808,-0.0737 3.321,0.29037 4.6307,1.10507 2.4945,1.55213 4.4293,3.36902 5.799,5.44543 1.3645,1.91372 2.4122,3.98849 3.1354,6.24824 3.1274,11.31487 4.777,22.44246 4.9571,33.36072 0.338,10.75036 -1.223,20.82233 -4.6774,30.22444 -1.4854,4.61197 -3.5447,8.92344 -6.1907,12.91969 -2.4833,3.99117 -5.4103,7.40335 -8.7438,10.27987 -3.3387,2.71368 -7.1713,4.79901 -11.5284,6.24037 -4.1939,1.43626 -8.7406,1.98336 -13.6423,1.64833 -2.1227,-0.0963 -4.241,-0.43382 -6.3789,-1.01875 -1.9752,-0.59007 -3.8764,-1.33855 -5.6989,-2.25953 -0.269,-0.176 -0.5184,-0.35679 -0.7673,-0.53865 8.4462,46.0953 37.2933,84.77321 76.5799,106.73974 l -2.1243,-67.56034 -14.3054,0.44982 c -6.4075,0.20155 -11.472,-1.63271 -15.2104,-5.46221 -3.7436,-3.99359 -5.6847,-8.76805 -5.8603,-14.35417 -0.1756,-5.58586 1.4631,-10.41849 4.9538,-14.47533 3.4852,-4.22087 8.4229,-6.42395 14.8303,-6.62558 l 68.7785,-2.16262 c 6.4074,-0.20129 11.4734,1.68728 15.2173,5.68078 3.7382,3.82961 5.7088,8.5487 5.8846,14.13456 0.1756,5.58613 -1.4931,10.47409 -4.9781,14.69494 -3.4908,4.05686 -8.4299,6.20564 -14.8372,6.40701 l -13.8057,0.43409 2.6615,84.64567 c 12.456,2.80151 25.4693,4.07657 38.8216,3.6567 2.841,-0.0893 5.6593,-0.24495 8.4576,-0.4848 -0.1537,-1.05343 -0.2552,-2.15291 -0.2913,-3.30494 l -3.3471,-106.44742 c -0.2066,-6.57161 1.5962,-11.63513 5.4309,-15.2094 3.9988,-3.57919 8.8062,-5.46684 14.3923,-5.64261 5.4217,-0.17037 10.167,1.4169 14.2186,4.74297 4.2158,3.32117 6.4189,8.2587 6.6255,14.83037 l 1.0617,33.76454 31.5349,-48.10859 c 2.2228,-2.53631 4.5507,-4.51757 6.974,-5.90958 2.4229,-1.39167 5.2729,-2.13535 8.5589,-2.23886 2.7929,-0.0876 5.4556,0.39701 7.9563,1.46943 2.6648,1.06756 5.0148,2.50444 7.0432,4.24949 2.0282,1.7454 3.6304,3.91425 4.8632,6.50664 1.2275,2.42843 1.906,4.93764 1.9888,7.56625 0.1498,4.76469 -1.2816,9.02234 -4.2894,12.73487 l -34.7123,41.51768 20.3214,21.84085 c 33.492,-29.36383 54.0784,-72.93581 52.5692,-120.93059 -0.422,-13.42125 -2.5758,-26.38774 -6.1881,-38.69963 -0.012,0.67788 -0,1.3645 -0.03,2.0332 -0.014,4.72877 -0.1978,8.98128 -0.5685,12.74287 -0.376,3.59889 -0.6452,6.11919 -0.7618,7.59023 -0.4222,2.13285 -0.917,3.79619 -1.5325,4.95682 -0.621,0.99784 -1.6639,1.839 -3.1093,2.53651 -1.9291,0.8759 -3.5342,1.24339 -4.8422,1.12146 -1.1505,-0.28987 -2.0945,-0.83849 -2.7714,-1.63249 -0.6773,-0.79383 -1.1648,-1.67384 -1.5213,-2.64093 -0.3615,-1.12991 -0.5664,-2.10589 -0.592,-2.92036 0.208,-3.75655 0.3179,-7.5713 0.358,-11.48567 0.04,-3.91427 0.01,-7.6688 -0.1037,-11.25227 0.045,-3.75138 -0.1504,-7.18374 -0.573,-10.26835 -0.2655,-3.25248 -0.6711,-6.06863 -1.2364,-8.49657 -0.1835,-0.64635 -0.5267,-1.47511 -1.0459,-2.43714 -0.5247,-1.1247 -1.2219,-2.14097 -2.0669,-3.09278 -0.6825,-0.95672 -1.3421,-1.77547 -2.0142,-2.40664 -0.6722,-0.63096 -1.1756,-1.01923 -1.5063,-1.17201 -1.629,0.0513 -3.6298,1.67496 -5.9756,4.84646 -2.3512,3.00884 -4.6923,6.66381 -7.0023,10.97546 -2.3102,4.31188 -4.5049,8.85759 -6.6368,13.65282 -2.1371,4.63251 -3.8023,8.61454 -5.003,11.91317 -0.8443,4.26576 -2.3036,7.48886 -4.3544,9.67288 -1.8932,2.01618 -3.7381,3.05653 -5.5299,3.11283 -1.7918,0.0563 -3.6016,-0.55208 -5.4342,-1.79889 -1.675,-1.41471 -2.7073,-2.99878 -3.0892,-4.78024 -0.5708,-2.59074 -1.1541,-5.51965 -1.745,-8.76201 -0.5914,-3.24223 -1.1872,-6.57487 -1.7834,-9.98016 -0.5961,-3.4051 -1.2782,-6.70378 -2.0322,-9.94104 -0.5911,-3.24219 -1.2302,-6.16938 -1.9635,-8.7551 -2.835,3.18677 -5.671,6.7147 -8.4851,10.55312 -2.8141,3.83859 -5.6388,7.73873 -8.4476,11.74003 -2.6464,3.99637 -5.206,8.00647 -7.6894,11.99759 -2.4882,3.8283 -4.8056,7.25256 -6.9935,10.25612 -1.4099,1.83783 -2.9181,3.50182 -4.5008,5.01889 -1.425,1.34925 -3.0191,2.06472 -4.8107,2.12104 -1.3032,0.041 -2.6507,-0.49492 -3.9896,-1.59418 -1.1811,-1.26718 -2.2674,-2.79371 -3.301,-4.55476 -1.0337,-1.76096 -1.9045,-3.75421 -2.6279,-6.01412 -0.5602,-2.26495 -0.9799,-4.53365 -1.2146,-6.80896 -0.057,-7.00903 0.192,-14.70202 0.7453,-23.03481 0.5481,-8.49544 1.0411,-16.74311 1.4418,-24.74499 0.4014,-2.78429 1.2171,-5.32176 2.4484,-7.64328 1.3892,-2.48917 3.4431,-4.20158 6.1865,-5.10317 0.6884,-0.14392 1.3406,-0.21954 1.9307,-0.24827 1.7703,-0.0862 3.0938,0.33143 3.9797,1.2818 1.344,1.26222 1.9549,3.29492 1.8792,6.06896 -0.4067,2.62158 -0.7081,5.89537 -0.9107,9.81472 -0.2082,3.75662 -0.3996,7.74814 -0.5922,11.99323 -0.1978,4.08245 -0.3865,8.16094 -0.5843,12.24318 -0.035,4.07731 -0.091,7.83458 -0.1462,11.26014 2.3307,-3.66015 5.224,-8.14073 8.6437,-13.46576 3.5822,-5.32998 7.1468,-10.40998 10.7447,-15.25148 3.7555,-5.00933 7.3783,-9.22708 10.8594,-12.59753 3.6387,-3.53821 6.6722,-5.3372 9.1156,-5.41417 2.6059,-0.0818 4.7837,1.14923 6.4947,3.70401 1.8684,2.38704 3.2619,5.37752 4.189,8.93525 1.0899,3.5528 1.8743,7.33947 2.3283,11.40119 0.6165,4.0568 1.0468,7.65595 1.3071,10.74551 1.0734,-2.15325 2.2972,-4.5607 3.6814,-7.21299 1.5415,-2.8202 3.1563,-5.64405 4.8612,-8.46946 1.6995,-2.98816 3.5724,-5.90722 5.603,-8.74294 2.0303,-2.83552 4.1458,-5.35804 6.3597,-7.54732 2.3715,-2.35711 4.8612,-4.05192 7.4367,-5.11128 2.7331,-1.22711 4.6465,-1.86559 5.7869,-1.90153 0.8423,-0.0264 1.7682,0.12105 2.7332,0.4143 -28.6561,-42.50668 -77.8389,-69.80697 -132.8614,-68.07686 z m -10.8915,49.36665 c 5.6958,-0.34196 9.8051,0.8283 12.3356,3.52035 2.6877,2.52431 4.0062,5.89007 3.9765,10.13001 -0.1825,4.57108 -0.5188,9.49373 -1.0065,14.72643 -0.33,5.06482 -0.834,10.19145 -1.4845,15.42924 -0.6506,5.23801 -1.3863,10.31608 -2.2098,15.23326 -0.8238,4.91725 -1.6353,9.36367 -2.4894,13.30354 4.6733,3.44012 7.2825,6.53527 7.8582,9.28885 0.5757,2.75371 0.2487,5.22007 -0.9873,7.37846 -1.3738,2.97806 -3.3756,4.57043 -5.9766,4.8152 -2.4433,0.0768 -5.1548,-0.73325 -8.143,-2.43283 -2.555,1.71084 -5.4988,3.59411 -8.8578,5.65619 -3.2014,1.89424 -6.5803,3.79114 -10.1073,5.69545 -3.5323,1.7416 -7.0637,3.32623 -10.6062,4.74192 -3.3796,1.41064 -6.5255,2.4049 -9.4421,2.98577 -5.3495,0.98343 -9.8527,0.14261 -13.5231,-2.51377 -3.6705,-2.65629 -5.7643,-6.75011 -6.264,-12.27793 -0.4437,-3.73604 -0.073,-7.55906 1.1075,-11.5093 1.1751,-4.11295 3.0172,-8.01345 5.5107,-11.67895 2.6513,-3.83329 5.8627,-7.28566 9.6798,-10.34055 3.817,-3.05476 8.1619,-5.47324 12.9971,-7.25579 1.2877,-0.52954 2.9772,-0.98683 5.0842,-1.3792 2.1074,-0.39229 4.2101,-0.54548 6.3328,-0.44926 2.2804,-0.0716 4.5179,0.29343 6.661,1.04117 2.143,0.74794 3.9754,2.07684 5.503,3.98529 0.5644,-2.78941 1.0467,-5.83894 1.4331,-9.11207 0.544,-3.44093 0.9834,-6.86197 1.3645,-10.29794 0.3813,-3.43581 0.684,-6.65382 0.9176,-9.59608 0.3912,-3.11009 0.5706,-5.71462 0.5041,-7.83224 0.086,-2.44827 -0.625,-3.89955 -2.1063,-4.34218 -1.3234,-0.61047 -3.1966,-0.46448 -5.6144,0.42662 -4.1941,1.43636 -9.2198,4.13751 -15.1287,8.07321 -5.7461,3.93081 -11.3355,8.09205 -16.7404,12.50109 -1.7456,1.52234 -3.6005,2.24603 -5.5604,2.1445 -1.7967,-0.10645 -3.2055,-0.8146 -4.2238,-2.08701 -1.1812,-1.26711 -1.7183,-2.72386 -1.6066,-4.35793 0.2696,-1.80186 1.2788,-3.71133 3.0093,-5.72239 3.3282,-3.03934 6.8986,-6.15466 10.7107,-9.37252 3.9747,-3.22266 8.043,-6.12368 12.2013,-8.70025 4.153,-2.73911 8.3295,-4.97819 12.5131,-6.74029 4.1838,-1.76187 8.3111,-2.78698 12.3781,-3.07807 z m -20.393,67.36167 c -0.1629,0.005 -0.3365,0.0215 -0.4988,0.047 -2.2651,0.56044 -4.6538,1.705 -7.2087,3.41574 -2.5601,1.54794 -5.0419,3.50374 -7.4132,5.86084 -2.214,2.18928 -4.0137,4.67061 -5.3924,7.48569 -1.2211,2.64717 -1.7163,5.2929 -1.4714,7.89385 0.1935,0.97224 0.7938,1.67456 1.7867,2.13242 0.9924,0.45803 2.1509,0.50861 3.4436,0.14188 4.0466,-0.94244 8.6994,-2.64946 14.0029,-5.09887 5.4611,-2.61735 9.9388,-5.35706 13.4352,-8.23881 0.1321,-0.98234 -0.1363,-2.18634 -0.8333,-3.63183 -0.7028,-1.60831 -1.6463,-3.13932 -2.8325,-4.56953 -1.0286,-1.59804 -2.2274,-2.94684 -3.5664,-4.04613 -1.1716,-0.9618 -2.3116,-1.42806 -3.4517,-1.39224 z m 88.7537,152.84872 0.9232,29.36051 c 5.5454,-2.05131 10.9419,-4.42694 16.1606,-7.07393 l -17.0838,-22.28658 z"
       id="path3797"
       inkscape:connector-curvature="0" />
    <path
       sodipodi:type="arc"
       style="fill:#000000;fill-opacity:1;fill-rule:nonzero;stroke:none"
       id="path3807"
       sodipodi:cx="-330"
       sodipodi:cy="56.647896"
       sodipodi:rx="135.71428"
       sodipodi:ry="135.71428"
       d="m -194.28572,56.647896 a 135.71428,135.71428 0 1 1 -271.42856,0 135.71428,135.71428 0 1 1 271.42856,0 z"
       transform="matrix(1.1368421,0,0,1.1368421,2390.4738,455.96978)" />
    <text
       xml:space="preserve"
       style="font-size:246.56362915px;font-style:normal;font-variant:normal;font-weight:bold;font-stretch:normal;line-height:125%;letter-spacing:0px;word-spacing:0px;fill:#ffffff;fill-opacity:1;stroke:none;font-family:Century Gothic;-inkscape-font-specification:Century Gothic Bold"
       x="1897.2421"
       y="691.60144"
       id="text3809"
       sodipodi:linespacing="125%"><tspan
         sodipodi:role="line"
         id="tspan3811"
         x="1897.2421"
         y="691.60144"
         style="font-style:normal;font-variant:normal;font-weight:normal;font-stretch:normal;fill:#ffffff;font-family:Junegull;-inkscape-font-specification:Junegull">tk</tspan></text>
    <text
       sodipodi:linespacing="125%"
       id="text3813"
       y="550.25934"
       x="1853.7227"
       style="font-size:244.44604492px;font-style:normal;font-variant:normal;font-weight:bold;font-stretch:normal;line-height:125%;letter-spacing:0px;word-spacing:0px;fill:#ffffff;fill-opacity:1;stroke:none;font-family:Century Gothic;-inkscape-font-specification:Century Gothic Bold"
       xml:space="preserve"><tspan
         y="550.25934"
         x="1853.7227"
         id="tspan3815"
         sodipodi:role="line"
         style="font-style:italic;font-variant:normal;font-weight:bold;font-stretch:normal;fill:#ffffff;font-family:Nanum Pen Script;-inkscape-font-specification:Nanum Pen Script Bold Italic">jam</tspan></text>
    <path
       inkscape:connector-curvature="0"
       id="path3837"
       d="m 1320.7132,594.36659 c -42.9006,1.34893 -81.1596,20.08586 -108.2248,49.23802 0.2072,-0.009 0.4179,-0.0131 0.6247,-0.0196 2.6468,-0.0832 5.2703,0.009 7.8868,0.25226 5.3905,0.31983 10.0623,0.98114 14.0072,1.99833 1.7969,0.10662 3.2478,0.3781 4.4033,0.83073 1.1556,0.45292 1.6744,1.33197 1.5525,2.64003 -0.5492,3.27826 -2.0098,5.46323 -4.4223,6.51721 -2.2497,1.04909 -4.7758,1.58848 -7.5449,1.67542 -2.7792,-0.23854 -6.0449,-0.27879 -9.7911,-0.16107 -3.7465,0.1179 -7.4112,0.2331 -10.9946,0.34568 -1.4659,0.0462 -2.7697,-0.087 -3.92,-0.37699 -0.7409,-0.22121 -1.291,-0.8564 -1.6861,-1.91672 -20.6097,27.16265 -32.4021,61.29603 -31.2471,98.03044 0.1355,4.31193 0.4538,8.57801 0.9337,12.78948 0.1582,-0.0919 0.2875,-0.2128 0.4596,-0.29584 1.6033,-0.86561 3.2972,-1.18011 5.0989,-0.91071 3.7771,0.85953 7.7723,1.16932 12.0022,0.87327 4.3927,-0.30117 8.415,-1.90128 12.0743,-4.78809 4.2953,-3.39596 7.51,-7.74376 9.6265,-13.02773 2.2793,-5.28908 3.72,-10.88052 4.3501,-16.77003 0.63,-5.88935 0.617,-11.83925 -0.061,-17.85064 -0.5153,-6.01636 -1.1802,-11.54167 -1.9905,-16.57059 -0.4024,-2.43293 -1.0393,-4.29071 -1.8946,-5.56824 -0.8555,-1.27733 -2.1129,-2.71147 -3.793,-4.28917 -3.6805,-2.98199 -3.9698,-6.64135 -0.8455,-10.97886 1.2467,-1.83258 2.8631,-2.83449 4.8126,-3.05899 0.2641,-0.0286 0.5253,-0.0453 0.7799,-0.0558 1.7808,-0.0737 3.321,0.29037 4.6308,1.10508 2.4944,1.55212 4.4292,3.36902 5.799,5.44542 1.3645,1.91373 2.4121,3.9885 3.1353,6.24825 3.1275,11.31487 4.777,22.44246 4.9571,33.36072 0.3381,10.75036 -1.2229,20.82232 -4.6774,30.22444 -1.4854,4.61196 -3.5447,8.92344 -6.1907,12.91969 -2.4833,3.99116 -5.4103,7.40334 -8.7437,10.27987 -3.3387,2.71368 -7.1714,4.799 -11.5285,6.24037 -4.1938,1.43625 -8.7406,1.98336 -13.6423,1.64833 -2.1227,-0.0963 -4.241,-0.43383 -6.3789,-1.01876 -1.9751,-0.59007 -3.8764,-1.33855 -5.6988,-2.25953 -0.2691,-0.17599 -0.5185,-0.35679 -0.7673,-0.53865 8.4461,46.09531 37.2933,84.77321 76.5798,106.73974 l -2.1242,-67.56034 -14.3055,0.44982 c -6.4074,0.20155 -11.472,-1.6327 -15.2104,-5.4622 -3.7435,-3.99359 -5.6847,-8.76805 -5.8603,-14.35418 -0.1756,-5.58585 1.4632,-10.41848 4.9538,-14.47532 3.4852,-4.22088 8.4229,-6.42395 14.8304,-6.62559 l 68.7784,-2.16262 c 6.4074,-0.20129 11.4735,1.68728 15.2174,5.68079 3.7381,3.82961 5.7088,8.54869 5.8845,14.13456 0.1756,5.58613 -1.493,10.47408 -4.978,14.69493 -3.4908,4.05686 -8.43,6.20564 -14.8373,6.40702 l -13.8057,0.43408 2.6616,84.64568 c 12.4559,2.80151 25.4693,4.07656 38.8215,3.6567 2.8411,-0.0893 5.6594,-0.24496 8.4577,-0.48481 -0.1538,-1.05342 -0.2552,-2.1529 -0.2914,-3.30493 l -3.3471,-106.44743 c -0.2066,-6.5716 1.5963,-11.63512 5.431,-15.20939 3.9987,-3.5792 8.8062,-5.46684 14.3922,-5.64261 5.4217,-0.17037 10.1671,1.4169 14.2186,4.74296 4.2158,3.32118 6.4189,8.25871 6.6256,14.83038 l 1.0616,33.76454 31.5349,-48.10859 c 2.2228,-2.53631 4.5507,-4.51757 6.9741,-5.90958 2.4229,-1.39167 5.2728,-2.13535 8.5588,-2.23886 2.793,-0.0877 5.4556,0.397 7.9563,1.46943 2.6648,1.06756 5.0149,2.50444 7.0433,4.24949 2.0282,1.74539 3.6303,3.91425 4.8632,6.50664 1.2274,2.42842 1.906,4.93763 1.9887,7.56624 0.1498,4.7647 -1.2815,9.02235 -4.2893,12.73487 l -34.7124,41.51769 20.3214,21.84085 c 33.4921,-29.36383 54.0784,-72.93582 52.5693,-120.93059 -0.422,-13.42125 -2.5758,-26.38775 -6.1881,-38.69964 -0.012,0.67789 -0,1.36451 -0.03,2.0332 -0.014,4.72877 -0.1979,8.98129 -0.5686,12.74288 -0.376,3.59889 -0.6452,6.11918 -0.7618,7.59023 -0.4222,2.13285 -0.917,3.79619 -1.5325,4.95682 -0.6209,0.99784 -1.6639,1.839 -3.1093,2.53651 -1.9291,0.87589 -3.5342,1.24338 -4.8421,1.12145 -1.1506,-0.28986 -2.0945,-0.83848 -2.7714,-1.63248 -0.6774,-0.79384 -1.1649,-1.67384 -1.5213,-2.64094 -0.3616,-1.1299 -0.5665,-2.10588 -0.5921,-2.92035 0.208,-3.75655 0.3179,-7.5713 0.358,-11.48567 0.04,-3.91428 0.01,-7.66881 -0.1037,-11.25228 0.045,-3.75137 -0.1504,-7.18373 -0.573,-10.26835 -0.2655,-3.25247 -0.6711,-6.06863 -1.2364,-8.49657 -0.1834,-0.64635 -0.5267,-1.4751 -1.0459,-2.43713 -0.5247,-1.12471 -1.2219,-2.14097 -2.0668,-3.09279 -0.6826,-0.95672 -1.3422,-1.77547 -2.0143,-2.40663 -0.6721,-0.63096 -1.1756,-1.01924 -1.5063,-1.17201 -1.6289,0.0513 -3.6298,1.67496 -5.9756,4.84646 -2.3512,3.00883 -4.6923,6.66381 -7.0023,10.97546 -2.3102,4.31188 -4.5049,8.85758 -6.6368,13.65282 -2.137,4.63251 -3.8023,8.61453 -5.003,11.91316 -0.8442,4.26577 -2.3036,7.48886 -4.3543,9.67289 -1.8932,2.01617 -3.7382,3.05652 -5.5299,3.11283 -1.7919,0.0563 -3.6017,-0.55208 -5.4343,-1.7989 -1.675,-1.4147 -2.7073,-2.99877 -3.0892,-4.78023 -0.5707,-2.59075 -1.1541,-5.51966 -1.745,-8.76201 -0.5913,-3.24224 -1.1872,-6.57487 -1.7833,-9.98016 -0.5962,-3.40511 -1.2782,-6.70379 -2.0322,-9.94104 -0.5912,-3.2422 -1.2303,-6.16939 -1.9635,-8.7551 -2.8351,3.18676 -5.671,6.7147 -8.4852,10.55311 -2.814,3.83859 -5.6388,7.73873 -8.4476,11.74004 -2.6464,3.99636 -5.206,8.00647 -7.6893,11.99758 -2.4883,3.82831 -4.8057,7.25257 -6.9936,10.25613 -1.4098,1.83783 -2.918,3.50182 -4.5008,5.01889 -1.4249,1.34925 -3.0191,2.06471 -4.8107,2.12104 -1.3031,0.041 -2.6506,-0.49492 -3.9895,-1.59418 -1.1812,-1.26719 -2.2675,-2.79372 -3.301,-4.55476 -1.0338,-1.76096 -1.9046,-3.75422 -2.6279,-6.01412 -0.5603,-2.26496 -0.98,-4.53366 -1.2146,-6.80897 -0.057,-7.00903 0.1919,-14.70202 0.7452,-23.03481 0.5481,-8.49543 1.0412,-16.7431 1.4419,-24.74499 0.4014,-2.78428 1.217,-5.32176 2.4483,-7.64328 1.3892,-2.48916 3.4431,-4.20158 6.1865,-5.10316 0.6884,-0.14393 1.3406,-0.21954 1.9307,-0.24827 1.7704,-0.0862 3.0938,0.33143 3.9797,1.2818 1.3441,1.26222 1.955,3.29491 1.8792,6.06896 -0.4067,2.62157 -0.7081,5.89537 -0.9107,9.81472 -0.2082,3.75661 -0.3996,7.74814 -0.5922,11.99322 -0.1978,4.08245 -0.3865,8.16095 -0.5843,12.24318 -0.035,4.07731 -0.091,7.83458 -0.1462,11.26015 2.3308,-3.66015 5.2241,-8.14074 8.6437,-13.46577 3.5823,-5.32997 7.1469,-10.40997 10.7447,-15.25147 3.7555,-5.00933 7.3783,-9.22708 10.8594,-12.59753 3.6387,-3.53821 6.6722,-5.3372 9.1157,-5.41417 2.6058,-0.0818 4.7836,1.14923 6.4946,3.704 1.8685,2.38705 3.2619,5.37752 4.1891,8.93525 1.0899,3.55281 1.8743,7.33948 2.3282,11.40119 0.6165,4.05681 1.0468,7.65595 1.3071,10.74551 1.0735,-2.15324 2.2972,-4.5607 3.6815,-7.21299 1.5414,-2.82019 3.1562,-5.64404 4.8612,-8.46945 1.6994,-2.98817 3.5724,-5.90723 5.603,-8.74294 2.0302,-2.83552 4.1457,-5.35805 6.3596,-7.54733 2.3715,-2.3571 4.8612,-4.05192 7.4367,-5.11128 2.7331,-1.2271 4.6466,-1.86559 5.7869,-1.90153 0.8423,-0.0264 1.7682,0.12105 2.7332,0.41431 -28.6561,-42.50668 -77.8388,-69.80698 -132.8614,-68.07686 z m -10.8914,49.36664 c 5.6958,-0.34196 9.805,0.82831 12.3355,3.52035 2.6878,2.52432 4.0062,5.89008 3.9765,10.13001 -0.1824,4.57109 -0.5188,9.49373 -1.0064,14.72643 -0.33,5.06482 -0.8341,10.19146 -1.4846,15.42925 -0.6505,5.23801 -1.3863,10.31608 -2.2098,15.23326 -0.8237,4.91725 -1.6353,9.36366 -2.4894,13.30353 4.6733,3.44013 7.2825,6.53527 7.8582,9.28886 0.5758,2.7537 0.2488,5.22006 -0.9872,7.37846 -1.3739,2.97805 -3.3757,4.57043 -5.9767,4.8152 -2.4433,0.0768 -5.1548,-0.73325 -8.143,-2.43284 -2.555,1.71084 -5.4988,3.59411 -8.8578,5.65619 -3.2014,1.89424 -6.5802,3.79115 -10.1073,5.69545 -3.5322,1.7416 -7.0637,3.32624 -10.6062,4.74192 -3.3795,1.41065 -6.5254,2.4049 -9.4421,2.98577 -5.3494,0.98344 -9.8527,0.14261 -13.5231,-2.51376 -3.6705,-2.6563 -5.7643,-6.75012 -6.2639,-12.27794 -0.4438,-3.73603 -0.073,-7.55906 1.1075,-11.50929 1.175,-4.11296 3.0172,-8.01346 5.5106,-11.67896 2.6513,-3.83329 5.8628,-7.28565 9.6799,-10.34055 3.8169,-3.05475 8.1618,-5.47324 12.9971,-7.25578 1.2877,-0.52954 2.9771,-0.98683 5.0841,-1.37921 2.1074,-0.39229 4.2102,-0.54547 6.3328,-0.44925 2.2804,-0.0716 4.5179,0.29342 6.6611,1.04116 2.1429,0.74794 3.9754,2.07685 5.5029,3.98529 0.5645,-2.78941 1.0467,-5.83894 1.4331,-9.11206 0.544,-3.44093 0.9835,-6.86198 1.3645,-10.29795 0.3813,-3.43581 0.684,-6.65382 0.9177,-9.59607 0.3912,-3.11009 0.5705,-5.71463 0.5041,-7.83224 0.086,-2.44828 -0.625,-3.89955 -2.1063,-4.34218 -1.3235,-0.61048 -3.1966,-0.46449 -5.6144,0.42661 -4.1942,1.43636 -9.2198,4.13752 -15.1288,8.07322 -5.7461,3.9308 -11.3355,8.09204 -16.7403,12.50108 -1.7457,1.52234 -3.6005,2.24603 -5.5604,2.14451 -1.7968,-0.10646 -3.2056,-0.8146 -4.2239,-2.08702 -1.1812,-1.26711 -1.7182,-2.72385 -1.6065,-4.35792 0.2696,-1.80186 1.2788,-3.71133 3.0092,-5.72239 3.3282,-3.03934 6.8986,-6.15466 10.7107,-9.37252 3.9748,-3.22266 8.0431,-6.12369 12.2013,-8.70026 4.153,-2.7391 8.3295,-4.97818 12.5131,-6.74029 4.1838,-1.76187 8.3111,-2.78697 12.3782,-3.07807 z m -20.3931,67.36168 c -0.1629,0.005 -0.3365,0.0215 -0.4987,0.047 -2.2651,0.56043 -4.6539,1.705 -7.2087,3.41574 -2.5602,1.54793 -5.0419,3.50374 -7.4133,5.86084 -2.214,2.18927 -4.0136,4.67061 -5.3923,7.48568 -1.2211,2.64718 -1.7164,5.2929 -1.4715,7.89386 0.1935,0.97223 0.7938,1.67455 1.7867,2.13241 0.9924,0.45803 2.1509,0.50861 3.4436,0.14189 4.0466,-0.94245 8.6995,-2.64947 14.0029,-5.09887 5.4612,-2.61735 9.9388,-5.35706 13.4353,-8.23881 0.1321,-0.98234 -0.1364,-2.18634 -0.8334,-3.63183 -0.7028,-1.60831 -1.6462,-3.13932 -2.8324,-4.56953 -1.0287,-1.59804 -2.2275,-2.94685 -3.5665,-4.04613 -1.1715,-0.96181 -2.3116,-1.42807 -3.4517,-1.39224 z m 88.7537,152.84872 0.9232,29.3605 c 5.5454,-2.05131 10.942,-4.42693 16.1607,-7.07393 l -17.0839,-22.28657 z"
       style="fill:#000000;fill-opacity:1;fill-rule:nonzero;stroke:none" />
    <path
       style="fill:#ffffff;stroke:#ffffff;stroke-width:5;stroke-linecap:butt;stroke-linejoin:miter;stroke-miterlimit:4;stroke-opacity:1;stroke-dasharray:none"
       d="m 1827.5233,536.23515 c 383.858,0 383.858,4.04061 383.858,4.04061"
       id="path3841"
       inkscape:connector-curvature="0" />
    <path
       transform="matrix(1.1368421,0,0,1.1368421,1495.4786,-249.11669)"
       d="m -194.28572,56.647896 a 135.71428,135.71428 0 1 1 -271.42856,0 135.71428,135.71428 0 1 1 271.42856,0 z"
       sodipodi:ry="135.71428"
       sodipodi:rx="135.71428"
       sodipodi:cy="56.647896"
       sodipodi:cx="-330"
       id="path3845"
       style="fill:#000000;fill-opacity:1;fill-rule:nonzero;stroke:none"
       sodipodi:type="arc" />
    <text
       sodipodi:linespacing="125%"
       id="text3847"
       y="-105.42951"
       x="989.85718"
       style="font-size:254.36779785px;font-style:normal;font-variant:normal;font-weight:bold;font-stretch:normal;line-height:125%;letter-spacing:0px;word-spacing:0px;fill:#ffffff;fill-opacity:1;stroke:none;font-family:Century Gothic;-inkscape-font-specification:Century Gothic Bold"
       xml:space="preserve"><tspan
         style="font-style:normal;font-variant:normal;font-weight:normal;font-stretch:normal;fill:#ffffff;font-family:Junegull;-inkscape-font-specification:Junegull"
         y="-105.42951"
         x="989.85718"
         id="tspan3849"
         sodipodi:role="line">tk</tspan></text>
    <text
       xml:space="preserve"
       style="font-size:234.18930054px;font-style:normal;font-variant:normal;font-weight:bold;font-stretch:normal;line-height:125%;letter-spacing:0px;word-spacing:0px;fill:#000000;fill-opacity:1;stroke:none;font-family:Century Gothic;-inkscape-font-specification:Century Gothic Bold"
       x="518.75116"
       y="-121.01453"
       id="text3851"
       sodipodi:linespacing="125%"><tspan
         style="font-style:normal;font-variant:normal;font-weight:normal;font-stretch:normal;fill:#000000;font-family:American Typewriter;-inkscape-font-specification:American Typewriter"
         sodipodi:role="line"
         id="tspan3853"
         x="518.75116"
         y="-121.01453">jam</tspan></text>
    <path
       sodipodi:type="arc"
       style="fill:#000000;fill-opacity:1;fill-rule:nonzero;stroke:none"
       id="path3855"
       sodipodi:cx="-330"
       sodipodi:cy="56.647896"
       sodipodi:rx="135.71428"
       sodipodi:ry="135.71428"
       d="m -194.28572,56.647896 a 135.71428,135.71428 0 1 1 -271.42856,0 135.71428,135.71428 0 1 1 271.42856,0 z"
       transform="matrix(1.1368421,0,0,1.1368421,2978.3825,-552.16245)" />
    <text
       xml:space="preserve"
       style="font-size:254.36779785px;font-style:normal;font-variant:normal;font-weight:bold;font-stretch:normal;line-height:125%;letter-spacing:0px;word-spacing:0px;fill:#ffffff;fill-opacity:1;stroke:none;font-family:Century Gothic;-inkscape-font-specification:Century Gothic Bold"
       x="2205.7944"
       y="-1168.8741"
       id="text3857"
       sodipodi:linespacing="125%"
       transform="matrix(0.95347935,0.30145834,-0.30145834,0.95347935,0,0)"><tspan
         sodipodi:role="line"
         id="tspan3859"
         x="2205.7944"
         y="-1168.8741"
         style="font-style:normal;font-variant:normal;font-weight:normal;font-stretch:normal;fill:#ffffff;font-family:Junegull;-inkscape-font-specification:Junegull">tk</tspan></text>
    <path
       transform="matrix(1.8513922,0,0,1.8513922,2951.5443,-354.24421)"
       d="m -194.28572,56.647896 a 135.71428,135.71428 0 1 1 -271.42856,0 135.71428,135.71428 0 1 1 271.42856,0 z"
       sodipodi:ry="135.71428"
       sodipodi:rx="135.71428"
       sodipodi:cy="56.647896"
       sodipodi:cx="-330"
       id="path3865"
       style="fill:#000000;fill-opacity:1;fill-rule:nonzero;stroke:none"
       sodipodi:type="arc" />
    <text
       sodipodi:linespacing="125%"
       id="text3861"
       y="209.12509"
       x="2077.0942"
       style="font-size:329.76824951px;font-style:normal;font-variant:normal;font-weight:bold;font-stretch:normal;line-height:125%;letter-spacing:0px;word-spacing:0px;fill:#ffffff;fill-opacity:1;stroke:none;font-family:Century Gothic;-inkscape-font-specification:Century Gothic Bold"
       xml:space="preserve"
       transform="matrix(0.9886896,-0.14997627,0.14997627,0.9886896,0,0)"><tspan
         y="209.12509"
         x="2077.0942"
         id="tspan3863"
         sodipodi:role="line"
         style="font-style:normal;font-variant:normal;font-weight:bold;font-stretch:normal;fill:#ffffff;font-family:Junegull;-inkscape-font-specification:Junegull">JAM</tspan></text>
    <path
       sodipodi:type="arc"
       style="fill:#000000;fill-opacity:1;fill-rule:nonzero;stroke:none"
       id="path3015"
       sodipodi:cx="-330"
       sodipodi:cy="56.647896"
       sodipodi:rx="135.71428"
       sodipodi:ry="135.71428"
       d="m -194.28572,56.647896 a 135.71428,135.71428 0 1 1 -271.42856,0 135.71428,135.71428 0 1 1 271.42856,0 z"
       transform="matrix(0.98797751,0,0,0.98797751,-121.40349,-681.11034)" />
    <text
       xml:space="preserve"
       style="font-size:221.05943298px;font-style:normal;font-variant:normal;font-weight:bold;font-stretch:normal;line-height:125%;letter-spacing:0px;word-spacing:0px;fill:#ffffff;fill-opacity:1;stroke:none;font-family:Century Gothic;-inkscape-font-specification:Century Gothic Bold"
       x="-560.81598"
       y="-556.2384"
       id="text3017"
       sodipodi:linespacing="125%"><tspan
         sodipodi:role="line"
         id="tspan3019"
         x="-560.81598"
         y="-556.2384"
         style="font-style:normal;font-variant:normal;font-weight:normal;font-stretch:normal;fill:#ffffff;font-family:Junegull;-inkscape-font-specification:Junegull">tk</tspan></text>
    <text
       sodipodi:linespacing="125%"
       id="text3021"
       y="-550.51434"
       x="-1024.7745"
       style="font-size:196.45840454px;font-style:normal;font-variant:normal;font-weight:bold;font-stretch:normal;line-height:125%;letter-spacing:0px;word-spacing:0px;fill:#000000;fill-opacity:1;stroke:none;font-family:Century Gothic;-inkscape-font-specification:Century Gothic Bold"
       xml:space="preserve"><tspan
         y="-550.51434"
         x="-1024.7745"
         id="tspan3023"
         sodipodi:role="line"
         style="font-style:italic;font-variant:normal;font-weight:bold;font-stretch:normal;fill:#000000;font-family:Chalkduster;-inkscape-font-specification:Chalkduster Bold Italic">JAM</tspan></text>
    <path
       transform="matrix(0.98797751,0,0,0.98797751,-509.30207,155.29598)"
       d="m -194.28572,56.647896 a 135.71428,135.71428 0 1 1 -271.42856,0 135.71428,135.71428 0 1 1 271.42856,0 z"
       sodipodi:ry="135.71428"
       sodipodi:rx="135.71428"
       sodipodi:cy="56.647896"
       sodipodi:cx="-330"
       id="path3025"
       style="fill:#000000;fill-opacity:1;fill-rule:nonzero;stroke:none"
       sodipodi:type="arc" />
    <text
       sodipodi:linespacing="125%"
       id="text3027"
       y="280.16791"
       x="-948.71454"
       style="font-size:221.05943298px;font-style:normal;font-variant:normal;font-weight:bold;font-stretch:normal;line-height:125%;letter-spacing:0px;word-spacing:0px;fill:#ffffff;fill-opacity:1;stroke:none;font-family:Century Gothic;-inkscape-font-specification:Century Gothic Bold"
       xml:space="preserve"><tspan
         style="font-style:normal;font-variant:normal;font-weight:normal;font-stretch:normal;fill:#ffffff;font-family:Junegull;-inkscape-font-specification:Junegull"
         y="280.16791"
         x="-948.71454"
         id="tspan3029"
         sodipodi:role="line">tk</tspan></text>
    <text
       xml:space="preserve"
       style="font-size:274.52603149px;font-style:normal;font-variant:normal;font-weight:bold;font-stretch:normal;line-height:125%;letter-spacing:0px;word-spacing:0px;fill:#000000;fill-opacity:1;stroke:none;font-family:Century Gothic;-inkscape-font-specification:Century Gothic Bold"
       x="-1467.412"
       y="313.68069"
       id="text3031"
       sodipodi:linespacing="125%"><tspan
         style="font-style:italic;font-variant:normal;font-weight:bold;font-stretch:normal;fill:#000000;font-family:PilGi;-inkscape-font-specification:PilGi Bold Italic"
         sodipodi:role="line"
         id="tspan3033"
         x="-1467.412"
         y="313.68069">jam</tspan></text>
    <path
       sodipodi:type="arc"
       style="fill:#000000;fill-opacity:1;fill-rule:nonzero;stroke:none"
       id="path3035"
       sodipodi:cx="-330"
       sodipodi:cy="56.647896"
       sodipodi:rx="135.71428"
       sodipodi:ry="135.71428"
       d="m -194.28572,56.647896 a 135.71428,135.71428 0 1 1 -271.42856,0 135.71428,135.71428 0 1 1 271.42856,0 z"
       transform="matrix(1.1368421,0,0,1.1368421,962.11805,-665.29954)" />
    <text
       xml:space="preserve"
       style="font-size:234.91699219px;font-style:normal;font-variant:normal;font-weight:bold;font-stretch:normal;line-height:125%;letter-spacing:0px;word-spacing:0px;fill:#ffffff;fill-opacity:1;stroke:none;font-family:Century Gothic;-inkscape-font-specification:Century Gothic Bold"
       x="409.6713"
       y="-520.58069"
       id="text3037"
       sodipodi:linespacing="125%"><tspan
         sodipodi:role="line"
         id="tspan3039"
         x="409.6713"
         y="-520.58069"
         style="font-style:normal;font-variant:normal;font-weight:normal;font-stretch:normal;fill:#ffffff;font-family:Chalkduster;-inkscape-font-specification:Chalkduster">TK</tspan></text>
    <text
       sodipodi:linespacing="125%"
       id="text3041"
       y="-387.69482"
       x="-119.66526"
       style="font-size:234.18930054px;font-style:normal;font-variant:normal;font-weight:bold;font-stretch:normal;line-height:125%;letter-spacing:0px;word-spacing:0px;fill:#000000;fill-opacity:1;stroke:none;font-family:Century Gothic;-inkscape-font-specification:Century Gothic Bold"
       xml:space="preserve"><tspan
         y="-387.69482"
         x="-119.66526"
         id="tspan3043"
         sodipodi:role="line"
         style="font-style:normal;font-variant:normal;font-weight:normal;font-stretch:normal;fill:#000000;font-family:American Typewriter;-inkscape-font-specification:American Typewriter">JAM</tspan></text>
    <path
       transform="matrix(0.27342737,0,0,0.27342737,897.30295,-1295.3332)"
       d="m -194.28572,56.647896 a 135.71428,135.71428 0 1 1 -271.42856,0 135.71428,135.71428 0 1 1 271.42856,0 z"
       sodipodi:ry="135.71428"
       sodipodi:rx="135.71428"
       sodipodi:cy="56.647896"
       sodipodi:cx="-330"
       id="path3045"
       style="fill:#000000;fill-opacity:1;fill-rule:nonzero;stroke:none"
       sodipodi:type="arc" />
    <text
       sodipodi:linespacing="125%"
       id="text3047"
       y="-1155.4344"
       x="882.5697"
       style="font-size:434.27380371px;font-style:normal;font-variant:normal;font-weight:bold;font-stretch:normal;line-height:125%;letter-spacing:0px;word-spacing:0px;fill:#000000;fill-opacity:1;stroke:none;font-family:Century Gothic;-inkscape-font-specification:Century Gothic Bold"
       xml:space="preserve"><tspan
         style="font-style:normal;font-variant:normal;font-weight:normal;font-stretch:normal;fill:#000000;font-family:Chalkduster;-inkscape-font-specification:Chalkduster"
         y="-1155.4344"
         x="882.5697"
         id="tspan3049"
         sodipodi:role="line">TK</tspan></text>
    <text
       xml:space="preserve"
       style="font-size:329.03146362px;font-style:normal;font-variant:normal;font-weight:bold;font-stretch:normal;line-height:125%;letter-spacing:0px;word-spacing:0px;fill:#000000;fill-opacity:1;stroke:none;font-family:Century Gothic;-inkscape-font-specification:Century Gothic Bold"
       x="13.758107"
       y="-1168.4653"
       id="text3055"
       sodipodi:linespacing="125%"><tspan
         style="font-style:normal;font-variant:normal;font-weight:500;font-stretch:normal;fill:#000000;font-family:Futura;-inkscape-font-specification:Futura Medium"
         sodipodi:role="line"
         id="tspan3057"
         x="13.758107"
         y="-1168.4653">JAM</tspan></text>
    <text
       xml:space="preserve"
       style="font-size:434.27380371px;font-style:normal;font-variant:normal;font-weight:bold;font-stretch:normal;line-height:125%;letter-spacing:0px;word-spacing:0px;fill:#000000;fill-opacity:1;stroke:none;font-family:Century Gothic;-inkscape-font-specification:Century Gothic Bold"
       x="-1881.2078"
       y="-775.61707"
       id="text3061"
       sodipodi:linespacing="125%"><tspan
         sodipodi:role="line"
         id="tspan3063"
         x="-1881.2078"
         y="-775.61707"
         style="font-style:normal;font-variant:normal;font-weight:normal;font-stretch:normal;fill:#000000;font-family:Chalkduster;-inkscape-font-specification:Chalkduster">TK</tspan></text>
    <text
       sodipodi:linespacing="125%"
       id="text3069"
       y="-1137.2526"
       x="-1941.2809"
       style="font-size:383.40975952px;font-style:normal;font-variant:normal;font-weight:bold;font-stretch:normal;line-height:125%;letter-spacing:0px;word-spacing:0px;fill:#000000;fill-opacity:1;stroke:none;font-family:Century Gothic;-inkscape-font-specification:Century Gothic Bold"
       xml:space="preserve"><tspan
         y="-1137.2526"
         x="-1941.2809"
         id="tspan3071"
         sodipodi:role="line"
         style="font-style:normal;font-variant:normal;font-weight:normal;font-stretch:normal;fill:#000000;font-family:American Typewriter;-inkscape-font-specification:American Typewriter">jam</tspan></text>
  </g>
</svg>
